<svg id="Layer_1" data-name="Layer 1" xmlns="http://www.w3.org/2000/svg" viewBox="0 0 20.91 37.28"><defs><style>.cls-1{fill:none;stroke:#fdeaa0;stroke-miterlimit:10;}</style></defs><title>icon</title><path class="cls-1" d="M8.89,36.78V32.31A17.28,17.28,0,0,1,.62,30.13L2,26.72a14.93,14.93,0,0,0,7.49,2c3.24,0,5.92-1.51,5.92-4,0-2.23-1.62-3.35-5.59-4.69-5.75-2-8.55-3.92-8.55-7.72s3.24-6.48,8-7V.5h3.19V5.14a16,16,0,0,1,6.93,1.79L18,10.28a13.5,13.5,0,0,0-6.48-1.67C8.5,8.61,6.15,10,6.15,12s1.29,3,6.09,4.64c5.59,1.79,8.17,4.19,8.17,7.82s-3,6.94-8.33,7.72v4.58Z"/></svg>