<svg id="Layer_1" data-name="Layer 1" xmlns="http://www.w3.org/2000/svg" viewBox="0 0 31.84 36.26"><defs><style>.cls-1{fill:#fdeaa0;}</style></defs><title>icon</title><path class="cls-1" d="M6.83,15.37a3.8,3.8,0,1,1,3.79-3.8A3.8,3.8,0,0,1,6.83,15.37ZM6.83,9a2.59,2.59,0,1,0,2.58,2.58A2.59,2.59,0,0,0,6.83,9Z"/><path class="cls-1" d="M19.05,15.37H13.42a.61.61,0,0,1,0-1.21h5.63a.61.61,0,1,1,0,1.21Z"/><path class="cls-1" d="M16.45,19.21H3.91a.61.61,0,1,1,0-1.21H16.45a.61.61,0,1,1,0,1.21Z"/><path class="cls-1" d="M13.1,22.83H3.91a.61.61,0,1,1,0-1.21H13.1a.61.61,0,1,1,0,1.21Z"/><path class="cls-1" d="M11.91,26.46h-8a.61.61,0,1,1,0-1.21h8a.61.61,0,1,1,0,1.21Z"/><path class="cls-1" d="M11.91,30.08h-8a.61.61,0,1,1,0-1.21h8a.61.61,0,1,1,0,1.21Z"/><path class="cls-1" d="M19.05,12.45H13.42a.61.61,0,0,1,0-1.21h5.63a.61.61,0,1,1,0,1.21Z"/><path class="cls-1" d="M19.05,9.53H13.42a.61.61,0,0,1,0-1.21h5.63a.61.61,0,1,1,0,1.21Z"/><path class="cls-1" d="M24.72,36.09H20.87a.62.62,0,0,1-.61-.61V33.67l-.36-.16L18.62,34.8a.62.62,0,0,1-.86,0L15,32.08a.64.64,0,0,1-.18-.43.62.62,0,0,1,.18-.43l1.28-1.28-.15-.37H14.36a.6.6,0,0,1-.61-.6V25.12a.61.61,0,0,1,.61-.61h1.81l.15-.36L15,22.86A.59.59,0,0,1,15,22l2.72-2.72a.58.58,0,0,1,.43-.18.6.6,0,0,1,.43.18l1.28,1.28a2.75,2.75,0,0,1,.36-.15V18.6a.61.61,0,0,1,.61-.6h3.85a.6.6,0,0,1,.6.6v1.82a2.39,2.39,0,0,1,.37.15L27,19.29a.6.6,0,0,1,.86,0L30.55,22a.59.59,0,0,1,0,.85l-1.28,1.29.15.36h1.81a.61.61,0,0,1,.61.61V29a.6.6,0,0,1-.61.6H29.42l-.15.37,1.28,1.28a.6.6,0,0,1,0,.86L27.83,34.8a.62.62,0,0,1-.86,0l-1.28-1.29-.37.16v1.81A.61.61,0,0,1,24.72,36.09Zm-3.24-1.22h2.63V33.24a.6.6,0,0,1,.43-.58,5.25,5.25,0,0,0,1-.42.61.61,0,0,1,.71.11l1.16,1.16,1.86-1.86L28.1,30.49a.61.61,0,0,1-.1-.71,5.93,5.93,0,0,0,.41-1,.6.6,0,0,1,.58-.43h1.64V25.72H29a.6.6,0,0,1-.58-.42,5.6,5.6,0,0,0-.41-1,.6.6,0,0,1,.1-.71l1.16-1.16L27.4,20.57l-1.16,1.16a.61.61,0,0,1-.71.11,5.93,5.93,0,0,0-1-.41.61.61,0,0,1-.43-.58V19.21H21.48v1.64a.62.62,0,0,1-.43.58,5.93,5.93,0,0,0-1,.41.61.61,0,0,1-.71-.11l-1.16-1.16-1.87,1.87,1.16,1.16a.59.59,0,0,1,.11.71,5.6,5.6,0,0,0-.41,1,.61.61,0,0,1-.58.42H15v2.64H16.6a.61.61,0,0,1,.58.43,5.93,5.93,0,0,0,.41,1,.59.59,0,0,1-.11.71l-1.16,1.16,1.87,1.86,1.16-1.16a.61.61,0,0,1,.71-.11,5.25,5.25,0,0,0,1,.42.61.61,0,0,1,.43.58Z"/><path class="cls-1" d="M22.79,31.89A4.85,4.85,0,1,1,27.65,27,4.85,4.85,0,0,1,22.79,31.89Zm0-8.49A3.64,3.64,0,1,0,26.43,27,3.65,3.65,0,0,0,22.79,23.4Z"/><path class="cls-1" d="M27.06,17.69a.6.6,0,0,1-.61-.6V1.21H5.92V2.35H24.7a.61.61,0,0,1,.61.61V16a.61.61,0,0,1-1.21,0V3.56H5.31a.6.6,0,0,1-.6-.6V.61A.6.6,0,0,1,5.31,0H27.06a.6.6,0,0,1,.6.61V17.09A.6.6,0,0,1,27.06,17.69Z"/><path class="cls-1" d="M22.35,16.61a.6.6,0,0,1-.61-.6V5.92H3a.61.61,0,0,1-.61-.61V3A.61.61,0,0,1,3,2.35H24.7a.61.61,0,0,1,.61.61V15.63a.61.61,0,0,1-1.21,0V3.56H3.56V4.71H22.35a.61.61,0,0,1,.61.6V16A.61.61,0,0,1,22.35,16.61Z"/><path class="cls-1" d="M16.89,36.26H.61A.61.61,0,0,1,0,35.65V5.31a.6.6,0,0,1,.61-.6H22.35a.61.61,0,0,1,.61.6V16a.61.61,0,0,1-.61.6.6.6,0,0,1-.61-.6V5.92H1.21V35.05H16.89a.61.61,0,0,1,0,1.21Z"/></svg>