<svg id="Layer_1" data-name="Layer 1" xmlns="http://www.w3.org/2000/svg" viewBox="0 0 19.84 19.82"><defs><style>.cls-1{fill:#e8e8e8;}</style></defs><title>telzolty</title><path class="cls-1" d="M14.18,19.82c-.42-.12-.85-.21-1.26-.36a15.29,15.29,0,0,1-3.69-2,29.71,29.71,0,0,1-4.6-4.07A23.31,23.31,0,0,1,.72,7.8,6.42,6.42,0,0,1,0,5.5,3.79,3.79,0,0,1,.34,3.71,8.29,8.29,0,0,1,2.71.49,1.83,1.83,0,0,1,3.78,0,1.57,1.57,0,0,1,4.92.54,13,13,0,0,1,7.16,3.42,8.3,8.3,0,0,1,8.07,5.2a1.24,1.24,0,0,1-.53,1.57c-.38.24-.8.41-1.2.62l-.49.24a5.1,5.1,0,0,0,.63,1.23,15.68,15.68,0,0,0,2.46,2.93,15.27,15.27,0,0,0,2.88,2c.35.19.36.16.53-.19s.37-.81.58-1.2A2.07,2.07,0,0,1,13.3,12a1.13,1.13,0,0,1,1.24-.24,11.5,11.5,0,0,1,1.46.7,14.72,14.72,0,0,1,3,2.2,2.66,2.66,0,0,1,.83,1.25v.19a2.68,2.68,0,0,1-.7,1.25c-.38.37-.76.73-1.17,1.06a6.68,6.68,0,0,1-2.65,1.35l-.37.1Zm.43-1.19.28,0,.27-.06a6.79,6.79,0,0,0,3.13-2.08c.44-.48.45-.46,0-.94a12.56,12.56,0,0,0-2.51-1.9c-.48-.28-1-.51-1.48-.76A.18.18,0,0,0,14,13c-.13.27-.26.53-.4.79a7.56,7.56,0,0,1-.47.89,1,1,0,0,1-1.24.45,4,4,0,0,1-.65-.25,14.46,14.46,0,0,1-3.34-2.42A15,15,0,0,1,5.41,9.35,5,5,0,0,1,4.7,7.92a1.08,1.08,0,0,1,.42-1.21,2.73,2.73,0,0,1,.43-.26l1.18-.58c.28-.14.28-.15.16-.43,0-.1-.08-.21-.13-.32A13.48,13.48,0,0,0,5.42,3a8.66,8.66,0,0,0-1.36-1.6c-.22-.18-.27-.19-.49,0A7.14,7.14,0,0,0,1.41,4.2a2.64,2.64,0,0,0,0,2.1A15.49,15.49,0,0,0,2.46,8.51,27.27,27.27,0,0,0,9.37,16a17.64,17.64,0,0,0,3.5,2.14A5.33,5.33,0,0,0,14.61,18.63Z"/></svg>