<svg id="Layer_1" data-name="Layer 1" xmlns="http://www.w3.org/2000/svg" viewBox="0 0 44.83 44.73"><defs><style>.cls-1{fill:none;stroke:#fdeaa0;stroke-linejoin:round;}</style></defs><title>icon</title><path class="cls-1" d="M41.88,3c.82,4.5,1.62,8.92,2.45,13.43L31,14l3.71-3.69C30.89,6.11,21.77,3,13.89,7.55A17.08,17.08,0,0,0,30,37.66l2.46,4.2c-1.18.46-2.29,1-3.44,1.33A21.85,21.85,0,1,1,18.72.82a22.31,22.31,0,0,1,19,5.53l.45.39Z"/><path class="cls-1" d="M16.83,26.12H22v2.53H12.79a4.77,4.77,0,0,1,1.31-3.73,23.49,23.49,0,0,1,2.27-1.82c.68-.53,1.4-1,2.06-1.57a1.77,1.77,0,0,0,.64-1.61,1.42,1.42,0,0,0-1.15-1.34,1.41,1.41,0,0,0-1.71.81,4.08,4.08,0,0,0-.28.9,9.69,9.69,0,0,0-.09,1H13.1a4.65,4.65,0,0,1,2.61-5,4.79,4.79,0,0,1,5.53,1.29A4.09,4.09,0,0,1,20.67,23c-.68.59-1.45,1.06-2.18,1.6l-1.76,1.31Z"/><path class="cls-1" d="M30.74,28.68H28V25.93H22.9c0-.86,0-1.66,0-2.47a.81.81,0,0,1,.21-.41c1.61-2.17,3.23-4.33,4.84-6.51a.79.79,0,0,1,.73-.38c.67,0,1.34,0,2.07,0v7.24h1.56V25.9H30.74ZM28,20.17l-2.39,3.2H28Z"/><path class="cls-1" d="M35.09,40.15,32.68,36l2.48-2.29L39,36.49A20.86,20.86,0,0,1,35.09,40.15Z"/><path class="cls-1" d="M43.19,29.39,41,34,37,31.2l1.45-3Z"/><path class="cls-1" d="M44,26.34l-4.69-1.21.23-3.22h4.8Z"/><path class="cls-1" d="M25.58,23.37,28,20.17v3.2"/></svg>