<svg id="Layer_1" data-name="Layer 1" xmlns="http://www.w3.org/2000/svg" viewBox="0 0 36.89 18.5"><defs><style>.cls-1{fill:#fdeaa0;}</style></defs><title>icon</title><path class="cls-1" d="M13.83,19.11a.6.6,0,0,1-.6-.61V14.83a.61.61,0,1,1,1.21,0V18.5A.61.61,0,0,1,13.83,19.11Z"/><path class="cls-1" d="M22.82,19.11a.61.61,0,0,1-.61-.61V14.83a.61.61,0,1,1,1.21,0V18.5A.6.6,0,0,1,22.82,19.11Z"/><path class="cls-1" d="M18.42,9.2a3.79,3.79,0,0,1-3.26-2.37,7.51,7.51,0,0,1-.84-3.53V2.15a.56.56,0,0,1,.09-.31A5.5,5.5,0,0,1,18.51,0c2.13,0,4.22,1.29,4.22,2.25v1a7.51,7.51,0,0,1-.84,3.53A3.76,3.76,0,0,1,18.51,9.2ZM15.53,2.37V3.3a6.28,6.28,0,0,0,.7,3C16.85,7.43,17.59,8,18.51,8s1.69-.56,2.31-1.73a6.28,6.28,0,0,0,.7-3V2.35a4.48,4.48,0,0,0-3-1.14A4.7,4.7,0,0,0,15.53,2.37Z"/><path class="cls-1" d="M18.52,11.78c-1.1,0-2-.65-2-1.48V8.23a.6.6,0,0,1,.3-.53.62.62,0,0,1,.62,0,1.81,1.81,0,0,0,1,.28,1.87,1.87,0,0,0,1.07-.28.61.61,0,0,1,.61,0,.59.59,0,0,1,.31.53V10.3C20.5,11.13,19.63,11.78,18.52,11.78Zm-.76-2.66V10.3a.92.92,0,0,0,.76.27c.48,0,.75-.2.77-.28V9.12a2.8,2.8,0,0,1-.77.08A2.77,2.77,0,0,1,17.76,9.12Z"/><path class="cls-1" d="M26.08,19.11H10.56a.6.6,0,0,1-.6-.61V13.76A4.82,4.82,0,0,1,14.77,9h2.38a.6.6,0,0,1,.61.6v.75a.92.92,0,0,0,.76.27c.48,0,.75-.2.77-.28V9.55A.6.6,0,0,1,19.9,9h2a4.82,4.82,0,0,1,4.81,4.81V18.5A.61.61,0,0,1,26.08,19.11ZM11.17,17.9H25.48V13.76a3.6,3.6,0,0,0-3.6-3.6H20.5v.14c0,.83-.87,1.48-2,1.48s-2-.65-2-1.48v-.14H14.77a3.6,3.6,0,0,0-3.6,3.6Z"/><path class="cls-1" d="M33.7,19.11a.6.6,0,0,1-.6-.61V15.6a.61.61,0,1,1,1.21,0v2.9A.61.61,0,0,1,33.7,19.11Z"/><path class="cls-1" d="M30.37,11.28H30.3a3,3,0,0,1-2.76-1.94,6.07,6.07,0,0,1-.67-2.84V5.59A.62.62,0,0,1,27,5.27a4.52,4.52,0,0,1,3.34-1.5c1.62,0,3.46,1,3.46,1.9V6.5a6.07,6.07,0,0,1-.67,2.84A3,3,0,0,1,30.37,11.28Zm-.07-1.21c.69,0,1.25-.41,1.72-1.29a5,5,0,0,0,.53-2.28V5.8A3.43,3.43,0,0,0,30.3,5a3.59,3.59,0,0,0-2.22.84V6.5a5,5,0,0,0,.53,2.28C29.08,9.65,29.65,10.1,30.3,10.07Z"/><path class="cls-1" d="M30.32,13.32c-.95,0-1.69-.57-1.69-1.3V10.39a.6.6,0,0,1,.3-.53.62.62,0,0,1,.62,0,1.3,1.3,0,0,0,.75.2,1.41,1.41,0,0,0,.79-.2.6.6,0,0,1,.91.52V12A1.51,1.51,0,0,1,30.32,13.32ZM29.84,12a.72.72,0,0,0,.48.14.71.71,0,0,0,.47-.14v-.72a1.83,1.83,0,0,1-.47,0,1.88,1.88,0,0,1-.48,0Z"/><path class="cls-1" d="M36.28,19.11h-8a.61.61,0,0,1-.61-.61.61.61,0,0,1,.61-.61h7.39V14.76A2.72,2.72,0,0,0,33,12H32a1.51,1.51,0,0,1-1.68,1.28c-.94,0-1.68-.56-1.69-1.28H27.35a.61.61,0,0,1,0-1.21h1.88a.6.6,0,0,1,.61.6V12a.72.72,0,0,0,.48.14.71.71,0,0,0,.47-.14v-.54a.6.6,0,0,1,.61-.6H33a3.93,3.93,0,0,1,3.93,3.93V18.5A.61.61,0,0,1,36.28,19.11Z"/><path class="cls-1" d="M3.35,19.11a.61.61,0,0,1-.61-.61V15.6A.61.61,0,1,1,4,15.6v2.9A.6.6,0,0,1,3.35,19.11Z"/><path class="cls-1" d="M6.64,11.28A3,3,0,0,1,4,9.34,6.07,6.07,0,0,1,3.29,6.5V5.67c0-.89,1.84-1.9,3.46-1.9a4.49,4.49,0,0,1,3.34,1.51.56.56,0,0,1,.09.31V6.5a6.07,6.07,0,0,1-.67,2.84,3,3,0,0,1-2.79,1.94Zm.08-1.21c.69,0,1.25-.41,1.71-1.29A4.89,4.89,0,0,0,9,6.5V5.81A3.69,3.69,0,0,0,6.75,5,3.43,3.43,0,0,0,4.5,5.8v.7A4.88,4.88,0,0,0,5,8.78C5.5,9.65,6.08,10.09,6.72,10.07Z"/><path class="cls-1" d="M6.73,13.32A1.52,1.52,0,0,1,5,12V10.39a.61.61,0,0,1,.31-.53.6.6,0,0,1,.61,0,1.36,1.36,0,0,0,.76.2,1.34,1.34,0,0,0,.78-.2.62.62,0,0,1,.62,0,.6.6,0,0,1,.3.53V12C8.42,12.75,7.68,13.32,6.73,13.32ZM6.26,12a.71.71,0,0,0,.47.14A.72.72,0,0,0,7.21,12v-.72a1.91,1.91,0,0,1-.48,0,1.83,1.83,0,0,1-.47,0Z"/><path class="cls-1" d="M8.76,19.11h-8a.61.61,0,0,1-.61-.61V14.76a3.93,3.93,0,0,1,3.93-3.93H5.65a.6.6,0,0,1,.61.6V12a.71.71,0,0,0,.47.14A.72.72,0,0,0,7.21,12v-.54a.6.6,0,0,1,.61-.6H9.7A.61.61,0,0,1,9.7,12H8.42c0,.72-.75,1.28-1.69,1.28A1.53,1.53,0,0,1,5,12h-1a2.72,2.72,0,0,0-2.72,2.72v3.13H8.76a.61.61,0,0,1,.61.61A.61.61,0,0,1,8.76,19.11Z"/></svg>