<svg id="Layer_1" data-name="Layer 1" xmlns="http://www.w3.org/2000/svg" viewBox="0 0 51.06 32.78"><defs><style>.cls-1{fill:#fff;}</style></defs><title>mailbialy</title><path class="cls-1" d="M51,.94a1,1,0,0,0-.82-.89V0L50,0H1A1,1,0,0,0,0,1H0v.06H0V2.69H0V31.77a1.06,1.06,0,0,0,1.12,1H50a1.06,1.06,0,0,0,1.11-1L51,1ZM47.09,2,28.47,17.56a4.65,4.65,0,0,1-5.87,0L4,2ZM2.24,3.32l15.54,13-15.54,13ZM4,30.55,19.43,17.66,21.08,19A7,7,0,0,0,30,19l1.65-1.38L47.09,30.55Zm44.85-1.29-15.55-13,15.55-13Z"/></svg>